<mxfile host="app.diagrams.net" modified="2023-12-14T14:52:09.023Z" agent="Mozilla/5.0 (Windows NT 10.0; Win64; x64) AppleWebKit/537.36 (KHTML, like Gecko) Chrome/120.0.0.0 Safari/537.36 Edg/120.0.0.0" etag="HJ7wfEiAnhNm_vfpzAWZ" version="22.1.8" type="github">
  <diagram name="第 1 页" id="x6PRf-U3iKhUXx0moPvG">
    <mxGraphModel dx="1042" dy="535" grid="1" gridSize="10" guides="1" tooltips="1" connect="1" arrows="1" fold="1" page="1" pageScale="1" pageWidth="827" pageHeight="1169" math="0" shadow="0">
      <root>
        <mxCell id="0" />
        <mxCell id="1" parent="0" />
        <mxCell id="qaxs40s3yd5O6dKmV1-N-1" value="" style="shape=table;startSize=0;container=1;collapsible=0;childLayout=tableLayout;" vertex="1" parent="1">
          <mxGeometry width="830" height="40" as="geometry" />
        </mxCell>
        <mxCell id="qaxs40s3yd5O6dKmV1-N-2" value="" style="shape=tableRow;horizontal=0;startSize=0;swimlaneHead=0;swimlaneBody=0;strokeColor=inherit;top=0;left=0;bottom=0;right=0;collapsible=0;dropTarget=0;fillColor=none;points=[[0,0.5],[1,0.5]];portConstraint=eastwest;" vertex="1" parent="qaxs40s3yd5O6dKmV1-N-1">
          <mxGeometry width="830" height="40" as="geometry" />
        </mxCell>
        <mxCell id="qaxs40s3yd5O6dKmV1-N-3" value="訂餐者" style="shape=partialRectangle;html=1;whiteSpace=wrap;connectable=0;strokeColor=inherit;overflow=hidden;fillColor=none;top=0;left=0;bottom=0;right=0;pointerEvents=1;" vertex="1" parent="qaxs40s3yd5O6dKmV1-N-2">
          <mxGeometry width="119" height="40" as="geometry">
            <mxRectangle width="119" height="40" as="alternateBounds" />
          </mxGeometry>
        </mxCell>
        <mxCell id="qaxs40s3yd5O6dKmV1-N-4" value="登錄介面" style="shape=partialRectangle;html=1;whiteSpace=wrap;connectable=0;strokeColor=inherit;overflow=hidden;fillColor=none;top=0;left=0;bottom=0;right=0;pointerEvents=1;" vertex="1" parent="qaxs40s3yd5O6dKmV1-N-2">
          <mxGeometry x="119" width="118" height="40" as="geometry">
            <mxRectangle width="118" height="40" as="alternateBounds" />
          </mxGeometry>
        </mxCell>
        <mxCell id="qaxs40s3yd5O6dKmV1-N-5" value="網站首頁" style="shape=partialRectangle;html=1;whiteSpace=wrap;connectable=0;strokeColor=inherit;overflow=hidden;fillColor=none;top=0;left=0;bottom=0;right=0;pointerEvents=1;" vertex="1" parent="qaxs40s3yd5O6dKmV1-N-2">
          <mxGeometry x="237" width="119" height="40" as="geometry">
            <mxRectangle width="119" height="40" as="alternateBounds" />
          </mxGeometry>
        </mxCell>
        <mxCell id="qaxs40s3yd5O6dKmV1-N-6" value="展示頁面" style="shape=partialRectangle;html=1;whiteSpace=wrap;connectable=0;strokeColor=inherit;overflow=hidden;fillColor=none;top=0;left=0;bottom=0;right=0;pointerEvents=1;" vertex="1" parent="qaxs40s3yd5O6dKmV1-N-2">
          <mxGeometry x="356" width="118" height="40" as="geometry">
            <mxRectangle width="118" height="40" as="alternateBounds" />
          </mxGeometry>
        </mxCell>
        <mxCell id="qaxs40s3yd5O6dKmV1-N-7" value="訂單介面" style="shape=partialRectangle;html=1;whiteSpace=wrap;connectable=0;strokeColor=inherit;overflow=hidden;fillColor=none;top=0;left=0;bottom=0;right=0;pointerEvents=1;" vertex="1" parent="qaxs40s3yd5O6dKmV1-N-2">
          <mxGeometry x="474" width="119" height="40" as="geometry">
            <mxRectangle width="119" height="40" as="alternateBounds" />
          </mxGeometry>
        </mxCell>
        <mxCell id="qaxs40s3yd5O6dKmV1-N-8" value="餐飲數據庫" style="shape=partialRectangle;html=1;whiteSpace=wrap;connectable=0;strokeColor=inherit;overflow=hidden;fillColor=none;top=0;left=0;bottom=0;right=0;pointerEvents=1;" vertex="1" parent="qaxs40s3yd5O6dKmV1-N-2">
          <mxGeometry x="593" width="118" height="40" as="geometry">
            <mxRectangle width="118" height="40" as="alternateBounds" />
          </mxGeometry>
        </mxCell>
        <mxCell id="qaxs40s3yd5O6dKmV1-N-9" value="評價檔案數據庫" style="shape=partialRectangle;html=1;whiteSpace=wrap;connectable=0;strokeColor=inherit;overflow=hidden;fillColor=none;top=0;left=0;bottom=0;right=0;pointerEvents=1;" vertex="1" parent="qaxs40s3yd5O6dKmV1-N-2">
          <mxGeometry x="711" width="119" height="40" as="geometry">
            <mxRectangle width="119" height="40" as="alternateBounds" />
          </mxGeometry>
        </mxCell>
        <mxCell id="qaxs40s3yd5O6dKmV1-N-10" value="&lt;u&gt;訂餐者&lt;/u&gt;" style="shape=umlActor;verticalLabelPosition=bottom;verticalAlign=top;html=1;outlineConnect=0;" vertex="1" parent="1">
          <mxGeometry x="40" y="50" width="30" height="52" as="geometry" />
        </mxCell>
        <mxCell id="qaxs40s3yd5O6dKmV1-N-16" value="&lt;u&gt;展示頁面&lt;/u&gt;" style="rounded=0;whiteSpace=wrap;html=1;fillColor=#fff2cc;strokeColor=#10100f;" vertex="1" parent="1">
          <mxGeometry x="370" y="60" width="100" height="50" as="geometry" />
        </mxCell>
        <mxCell id="qaxs40s3yd5O6dKmV1-N-18" value="&lt;u&gt;網站首頁&lt;/u&gt;" style="rounded=0;whiteSpace=wrap;html=1;fillColor=#fff2cc;strokeColor=#10100f;" vertex="1" parent="1">
          <mxGeometry x="250" y="60" width="100" height="50" as="geometry" />
        </mxCell>
        <mxCell id="qaxs40s3yd5O6dKmV1-N-19" value="&lt;u&gt;登錄介面&lt;/u&gt;" style="rounded=0;whiteSpace=wrap;html=1;fillColor=#fff2cc;strokeColor=#10100f;" vertex="1" parent="1">
          <mxGeometry x="130" y="60" width="100" height="50" as="geometry" />
        </mxCell>
        <mxCell id="qaxs40s3yd5O6dKmV1-N-20" value="&lt;u&gt;訂單介面&lt;/u&gt;" style="rounded=0;whiteSpace=wrap;html=1;fillColor=#fff2cc;strokeColor=#10100f;" vertex="1" parent="1">
          <mxGeometry x="490" y="60" width="100" height="50" as="geometry" />
        </mxCell>
        <mxCell id="qaxs40s3yd5O6dKmV1-N-21" value="&lt;u&gt;餐飲數據庫&lt;/u&gt;" style="rounded=0;whiteSpace=wrap;html=1;fillColor=#fff2cc;strokeColor=#10100f;" vertex="1" parent="1">
          <mxGeometry x="610" y="60" width="100" height="50" as="geometry" />
        </mxCell>
        <mxCell id="qaxs40s3yd5O6dKmV1-N-22" value="&lt;u&gt;評價檔案數據庫&lt;/u&gt;" style="rounded=0;whiteSpace=wrap;html=1;fillColor=#fff2cc;strokeColor=#10100f;" vertex="1" parent="1">
          <mxGeometry x="730" y="60" width="100" height="50" as="geometry" />
        </mxCell>
        <mxCell id="qaxs40s3yd5O6dKmV1-N-81" style="edgeStyle=orthogonalEdgeStyle;rounded=0;orthogonalLoop=1;jettySize=auto;html=1;entryX=0.5;entryY=0;entryDx=0;entryDy=0;dashed=1;endArrow=none;endFill=0;" edge="1" parent="1" source="qaxs40s3yd5O6dKmV1-N-23" target="qaxs40s3yd5O6dKmV1-N-80">
          <mxGeometry relative="1" as="geometry" />
        </mxCell>
        <mxCell id="qaxs40s3yd5O6dKmV1-N-23" value="" style="rounded=0;whiteSpace=wrap;html=1;strokeColor=#FF3399;" vertex="1" parent="1">
          <mxGeometry x="660" y="120" width="10" height="30" as="geometry" />
        </mxCell>
        <mxCell id="qaxs40s3yd5O6dKmV1-N-33" value="" style="rounded=0;orthogonalLoop=1;jettySize=auto;html=1;endArrow=none;endFill=0;dashed=1;" edge="1" parent="1" source="qaxs40s3yd5O6dKmV1-N-24" target="qaxs40s3yd5O6dKmV1-N-25">
          <mxGeometry relative="1" as="geometry" />
        </mxCell>
        <mxCell id="qaxs40s3yd5O6dKmV1-N-34" style="edgeStyle=orthogonalEdgeStyle;rounded=0;orthogonalLoop=1;jettySize=auto;html=1;exitX=0.5;exitY=0;exitDx=0;exitDy=0;endArrow=none;endFill=0;dashed=1;" edge="1" parent="1" source="qaxs40s3yd5O6dKmV1-N-24">
          <mxGeometry relative="1" as="geometry">
            <mxPoint x="55" y="122" as="targetPoint" />
          </mxGeometry>
        </mxCell>
        <mxCell id="qaxs40s3yd5O6dKmV1-N-24" value="" style="rounded=0;whiteSpace=wrap;html=1;strokeColor=#FF3399;" vertex="1" parent="1">
          <mxGeometry x="50" y="140" width="10" height="30" as="geometry" />
        </mxCell>
        <mxCell id="qaxs40s3yd5O6dKmV1-N-38" style="edgeStyle=orthogonalEdgeStyle;rounded=0;orthogonalLoop=1;jettySize=auto;html=1;exitX=0.5;exitY=1;exitDx=0;exitDy=0;entryX=0.5;entryY=0;entryDx=0;entryDy=0;endArrow=none;endFill=0;dashed=1;" edge="1" parent="1" source="qaxs40s3yd5O6dKmV1-N-26" target="qaxs40s3yd5O6dKmV1-N-36">
          <mxGeometry relative="1" as="geometry" />
        </mxCell>
        <mxCell id="qaxs40s3yd5O6dKmV1-N-26" value="" style="rounded=0;whiteSpace=wrap;html=1;strokeColor=#FF3399;" vertex="1" parent="1">
          <mxGeometry x="50" y="440" width="10" height="30" as="geometry" />
        </mxCell>
        <mxCell id="qaxs40s3yd5O6dKmV1-N-35" style="edgeStyle=orthogonalEdgeStyle;rounded=0;orthogonalLoop=1;jettySize=auto;html=1;exitX=0.5;exitY=1;exitDx=0;exitDy=0;entryX=0.5;entryY=0;entryDx=0;entryDy=0;dashed=1;endArrow=none;endFill=0;" edge="1" parent="1" source="qaxs40s3yd5O6dKmV1-N-25" target="qaxs40s3yd5O6dKmV1-N-26">
          <mxGeometry relative="1" as="geometry" />
        </mxCell>
        <mxCell id="qaxs40s3yd5O6dKmV1-N-25" value="" style="rounded=0;whiteSpace=wrap;html=1;strokeColor=#FF3399;labelBackgroundColor=default;" vertex="1" parent="1">
          <mxGeometry x="50" y="220" width="10" height="30" as="geometry" />
        </mxCell>
        <mxCell id="qaxs40s3yd5O6dKmV1-N-42" style="edgeStyle=orthogonalEdgeStyle;rounded=0;orthogonalLoop=1;jettySize=auto;html=1;exitX=0.5;exitY=1;exitDx=0;exitDy=0;endArrow=none;endFill=0;dashed=1;" edge="1" parent="1" source="qaxs40s3yd5O6dKmV1-N-36">
          <mxGeometry relative="1" as="geometry">
            <mxPoint x="55" y="520" as="targetPoint" />
          </mxGeometry>
        </mxCell>
        <mxCell id="qaxs40s3yd5O6dKmV1-N-36" value="" style="rounded=0;whiteSpace=wrap;html=1;strokeColor=#FF3399;" vertex="1" parent="1">
          <mxGeometry x="50" y="480" width="10" height="30" as="geometry" />
        </mxCell>
        <mxCell id="qaxs40s3yd5O6dKmV1-N-40" style="edgeStyle=orthogonalEdgeStyle;rounded=0;orthogonalLoop=1;jettySize=auto;html=1;exitX=0.5;exitY=0;exitDx=0;exitDy=0;entryX=0.5;entryY=1;entryDx=0;entryDy=0;dashed=1;endArrow=none;endFill=0;" edge="1" parent="1" source="qaxs40s3yd5O6dKmV1-N-39" target="qaxs40s3yd5O6dKmV1-N-19">
          <mxGeometry relative="1" as="geometry" />
        </mxCell>
        <mxCell id="qaxs40s3yd5O6dKmV1-N-41" style="edgeStyle=orthogonalEdgeStyle;rounded=0;orthogonalLoop=1;jettySize=auto;html=1;exitX=0.25;exitY=1;exitDx=0;exitDy=0;endArrow=none;endFill=0;dashed=1;" edge="1" parent="1">
          <mxGeometry relative="1" as="geometry">
            <mxPoint x="180" y="520" as="targetPoint" />
            <mxPoint x="179.5" y="200" as="sourcePoint" />
          </mxGeometry>
        </mxCell>
        <mxCell id="qaxs40s3yd5O6dKmV1-N-39" value="" style="rounded=0;whiteSpace=wrap;html=1;strokeColor=#FF3399;labelBackgroundColor=default;" vertex="1" parent="1">
          <mxGeometry x="175" y="140" width="10" height="60" as="geometry" />
        </mxCell>
        <mxCell id="qaxs40s3yd5O6dKmV1-N-56" value="" style="edgeStyle=orthogonalEdgeStyle;rounded=0;orthogonalLoop=1;jettySize=auto;html=1;endArrow=none;endFill=0;dashed=1;" edge="1" parent="1" source="qaxs40s3yd5O6dKmV1-N-43" target="qaxs40s3yd5O6dKmV1-N-47">
          <mxGeometry relative="1" as="geometry" />
        </mxCell>
        <mxCell id="qaxs40s3yd5O6dKmV1-N-57" value="" style="edgeStyle=orthogonalEdgeStyle;rounded=0;orthogonalLoop=1;jettySize=auto;html=1;endArrow=none;endFill=0;dashed=1;" edge="1" parent="1" source="qaxs40s3yd5O6dKmV1-N-43" target="qaxs40s3yd5O6dKmV1-N-53">
          <mxGeometry relative="1" as="geometry" />
        </mxCell>
        <mxCell id="qaxs40s3yd5O6dKmV1-N-43" value="" style="rounded=0;whiteSpace=wrap;html=1;strokeColor=#FF3399;labelBackgroundColor=default;" vertex="1" parent="1">
          <mxGeometry x="295" y="360" width="10" height="20" as="geometry" />
        </mxCell>
        <mxCell id="qaxs40s3yd5O6dKmV1-N-45" style="edgeStyle=orthogonalEdgeStyle;rounded=0;orthogonalLoop=1;jettySize=auto;html=1;exitX=0.5;exitY=0;exitDx=0;exitDy=0;entryX=0.5;entryY=1;entryDx=0;entryDy=0;dashed=1;endArrow=none;endFill=0;" edge="1" parent="1" source="qaxs40s3yd5O6dKmV1-N-44" target="qaxs40s3yd5O6dKmV1-N-18">
          <mxGeometry relative="1" as="geometry" />
        </mxCell>
        <mxCell id="qaxs40s3yd5O6dKmV1-N-44" value="" style="rounded=0;whiteSpace=wrap;html=1;strokeColor=#FF3399;labelBackgroundColor=default;" vertex="1" parent="1">
          <mxGeometry x="295" y="170" width="10" height="50" as="geometry" />
        </mxCell>
        <mxCell id="qaxs40s3yd5O6dKmV1-N-54" value="" style="edgeStyle=orthogonalEdgeStyle;rounded=0;orthogonalLoop=1;jettySize=auto;html=1;endArrow=none;endFill=0;dashed=1;" edge="1" parent="1" source="qaxs40s3yd5O6dKmV1-N-47" target="qaxs40s3yd5O6dKmV1-N-44">
          <mxGeometry relative="1" as="geometry" />
        </mxCell>
        <mxCell id="qaxs40s3yd5O6dKmV1-N-47" value="" style="rounded=0;whiteSpace=wrap;html=1;strokeColor=#FF3399;labelBackgroundColor=default;" vertex="1" parent="1">
          <mxGeometry x="295" y="260" width="10" height="30" as="geometry" />
        </mxCell>
        <mxCell id="qaxs40s3yd5O6dKmV1-N-60" style="edgeStyle=orthogonalEdgeStyle;rounded=0;orthogonalLoop=1;jettySize=auto;html=1;endArrow=none;endFill=0;dashed=1;" edge="1" parent="1" source="qaxs40s3yd5O6dKmV1-N-53">
          <mxGeometry relative="1" as="geometry">
            <mxPoint x="300" y="520.0000000000001" as="targetPoint" />
          </mxGeometry>
        </mxCell>
        <mxCell id="qaxs40s3yd5O6dKmV1-N-53" value="" style="rounded=0;whiteSpace=wrap;html=1;strokeColor=#FF3399;labelBackgroundColor=default;" vertex="1" parent="1">
          <mxGeometry x="295" y="400" width="10" height="20" as="geometry" />
        </mxCell>
        <mxCell id="qaxs40s3yd5O6dKmV1-N-72" value="" style="edgeStyle=orthogonalEdgeStyle;rounded=0;orthogonalLoop=1;jettySize=auto;html=1;endArrow=none;endFill=0;dashed=1;" edge="1" parent="1" source="qaxs40s3yd5O6dKmV1-N-59" target="qaxs40s3yd5O6dKmV1-N-62">
          <mxGeometry relative="1" as="geometry" />
        </mxCell>
        <mxCell id="qaxs40s3yd5O6dKmV1-N-73" value="" style="edgeStyle=orthogonalEdgeStyle;rounded=0;orthogonalLoop=1;jettySize=auto;html=1;endArrow=none;endFill=0;dashed=1;" edge="1" parent="1" source="qaxs40s3yd5O6dKmV1-N-59" target="qaxs40s3yd5O6dKmV1-N-16">
          <mxGeometry relative="1" as="geometry" />
        </mxCell>
        <mxCell id="qaxs40s3yd5O6dKmV1-N-59" value="" style="rounded=0;whiteSpace=wrap;html=1;strokeColor=#FF3399;labelBackgroundColor=default;" vertex="1" parent="1">
          <mxGeometry x="415" y="210" width="10" height="40" as="geometry" />
        </mxCell>
        <mxCell id="qaxs40s3yd5O6dKmV1-N-61" value="" style="rounded=0;whiteSpace=wrap;html=1;strokeColor=#FF3399;labelBackgroundColor=default;" vertex="1" parent="1">
          <mxGeometry x="415" y="260" width="10" height="20" as="geometry" />
        </mxCell>
        <mxCell id="qaxs40s3yd5O6dKmV1-N-103" style="edgeStyle=orthogonalEdgeStyle;rounded=0;orthogonalLoop=1;jettySize=auto;html=1;endArrow=none;endFill=0;dashed=1;" edge="1" parent="1" source="qaxs40s3yd5O6dKmV1-N-62">
          <mxGeometry relative="1" as="geometry">
            <mxPoint x="420" y="360" as="targetPoint" />
          </mxGeometry>
        </mxCell>
        <mxCell id="qaxs40s3yd5O6dKmV1-N-62" value="" style="rounded=0;whiteSpace=wrap;html=1;strokeColor=#FF3399;labelBackgroundColor=default;" vertex="1" parent="1">
          <mxGeometry x="415" y="310" width="10" height="30" as="geometry" />
        </mxCell>
        <mxCell id="qaxs40s3yd5O6dKmV1-N-65" value="" style="endArrow=openThin;endFill=0;endSize=7;html=1;rounded=0;edgeStyle=orthogonalEdgeStyle;exitX=0;exitY=1;exitDx=0;exitDy=0;entryX=1;entryY=0;entryDx=0;entryDy=0;strokeColor=#f33535;dashed=1;" edge="1" parent="1" source="qaxs40s3yd5O6dKmV1-N-44" target="qaxs40s3yd5O6dKmV1-N-25">
          <mxGeometry width="160" relative="1" as="geometry">
            <mxPoint x="340" y="300" as="sourcePoint" />
            <mxPoint x="500" y="300" as="targetPoint" />
            <Array as="points">
              <mxPoint x="295" y="220" />
            </Array>
          </mxGeometry>
        </mxCell>
        <mxCell id="qaxs40s3yd5O6dKmV1-N-66" value="" style="endArrow=openThin;endFill=0;endSize=7;html=1;rounded=0;edgeStyle=orthogonalEdgeStyle;entryX=0;entryY=0;entryDx=0;entryDy=0;strokeColor=#f94848;exitX=1;exitY=0.5;exitDx=0;exitDy=0;" edge="1" parent="1" source="qaxs40s3yd5O6dKmV1-N-39" target="qaxs40s3yd5O6dKmV1-N-44">
          <mxGeometry width="160" relative="1" as="geometry">
            <mxPoint x="190" y="170" as="sourcePoint" />
            <mxPoint x="500" y="300" as="targetPoint" />
            <Array as="points">
              <mxPoint x="270" y="170" />
              <mxPoint x="270" y="170" />
            </Array>
          </mxGeometry>
        </mxCell>
        <mxCell id="qaxs40s3yd5O6dKmV1-N-67" value="" style="endArrow=openThin;endFill=0;endSize=7;html=1;rounded=0;edgeStyle=orthogonalEdgeStyle;entryX=0;entryY=0;entryDx=0;entryDy=0;strokeColor=#f94848;exitX=1;exitY=0;exitDx=0;exitDy=0;" edge="1" parent="1" source="qaxs40s3yd5O6dKmV1-N-24" target="qaxs40s3yd5O6dKmV1-N-39">
          <mxGeometry width="160" relative="1" as="geometry">
            <mxPoint x="195" y="180" as="sourcePoint" />
            <mxPoint x="305" y="180" as="targetPoint" />
            <Array as="points">
              <mxPoint x="120" y="140" />
              <mxPoint x="120" y="140" />
            </Array>
          </mxGeometry>
        </mxCell>
        <mxCell id="qaxs40s3yd5O6dKmV1-N-68" value="" style="endArrow=openThin;endFill=0;endSize=7;html=1;rounded=0;strokeColor=#f94848;exitX=1;exitY=0;exitDx=0;exitDy=0;entryX=0;entryY=0;entryDx=0;entryDy=0;" edge="1" parent="1" source="qaxs40s3yd5O6dKmV1-N-47" target="qaxs40s3yd5O6dKmV1-N-61">
          <mxGeometry width="160" relative="1" as="geometry">
            <mxPoint x="315" y="259.17" as="sourcePoint" />
            <mxPoint x="410" y="260" as="targetPoint" />
          </mxGeometry>
        </mxCell>
        <mxCell id="qaxs40s3yd5O6dKmV1-N-69" value="" style="endArrow=openThin;endFill=0;endSize=7;html=1;rounded=0;strokeColor=#f94848;exitX=1;exitY=0;exitDx=0;exitDy=0;edgeStyle=orthogonalEdgeStyle;entryX=1;entryY=0.25;entryDx=0;entryDy=0;" edge="1" parent="1" source="qaxs40s3yd5O6dKmV1-N-59" target="qaxs40s3yd5O6dKmV1-N-59">
          <mxGeometry width="160" relative="1" as="geometry">
            <mxPoint x="315" y="270" as="sourcePoint" />
            <mxPoint x="460" y="220" as="targetPoint" />
            <Array as="points">
              <mxPoint x="460" y="210" />
              <mxPoint x="460" y="220" />
            </Array>
          </mxGeometry>
        </mxCell>
        <mxCell id="qaxs40s3yd5O6dKmV1-N-70" value="" style="endArrow=openThin;endFill=0;endSize=7;html=1;rounded=0;strokeColor=#f94848;exitX=1;exitY=0;exitDx=0;exitDy=0;edgeStyle=orthogonalEdgeStyle;entryX=1;entryY=0.25;entryDx=0;entryDy=0;" edge="1" parent="1" source="qaxs40s3yd5O6dKmV1-N-62" target="qaxs40s3yd5O6dKmV1-N-62">
          <mxGeometry width="160" relative="1" as="geometry">
            <mxPoint x="450" y="300" as="sourcePoint" />
            <mxPoint x="470" y="330" as="targetPoint" />
            <Array as="points">
              <mxPoint x="460" y="310" />
              <mxPoint x="460" y="318" />
              <mxPoint x="430" y="318" />
            </Array>
          </mxGeometry>
        </mxCell>
        <mxCell id="qaxs40s3yd5O6dKmV1-N-78" value="" style="edgeStyle=orthogonalEdgeStyle;rounded=0;orthogonalLoop=1;jettySize=auto;html=1;endArrow=none;endFill=0;dashed=1;" edge="1" parent="1" source="qaxs40s3yd5O6dKmV1-N-74" target="qaxs40s3yd5O6dKmV1-N-77">
          <mxGeometry relative="1" as="geometry" />
        </mxCell>
        <mxCell id="qaxs40s3yd5O6dKmV1-N-79" style="edgeStyle=orthogonalEdgeStyle;rounded=0;orthogonalLoop=1;jettySize=auto;html=1;entryX=0.5;entryY=1;entryDx=0;entryDy=0;endArrow=none;endFill=0;dashed=1;" edge="1" parent="1" source="qaxs40s3yd5O6dKmV1-N-74" target="qaxs40s3yd5O6dKmV1-N-20">
          <mxGeometry relative="1" as="geometry" />
        </mxCell>
        <mxCell id="qaxs40s3yd5O6dKmV1-N-74" value="" style="rounded=0;whiteSpace=wrap;html=1;strokeColor=#FF3399;labelBackgroundColor=default;" vertex="1" parent="1">
          <mxGeometry x="535" y="360" width="10" height="20" as="geometry" />
        </mxCell>
        <mxCell id="qaxs40s3yd5O6dKmV1-N-75" value="" style="endArrow=openThin;endFill=0;endSize=7;html=1;rounded=0;strokeColor=#f94848;exitX=1;exitY=0;exitDx=0;exitDy=0;entryX=0;entryY=0;entryDx=0;entryDy=0;" edge="1" parent="1" source="qaxs40s3yd5O6dKmV1-N-43" target="qaxs40s3yd5O6dKmV1-N-74">
          <mxGeometry width="160" relative="1" as="geometry">
            <mxPoint x="340" y="360" as="sourcePoint" />
            <mxPoint x="450" y="360" as="targetPoint" />
          </mxGeometry>
        </mxCell>
        <mxCell id="qaxs40s3yd5O6dKmV1-N-76" value="" style="endArrow=openThin;endFill=0;endSize=7;html=1;rounded=0;strokeColor=#f94848;exitX=1;exitY=0;exitDx=0;exitDy=0;entryX=0;entryY=0;entryDx=0;entryDy=0;" edge="1" parent="1" source="qaxs40s3yd5O6dKmV1-N-53" target="qaxs40s3yd5O6dKmV1-N-77">
          <mxGeometry width="160" relative="1" as="geometry">
            <mxPoint x="330" y="400" as="sourcePoint" />
            <mxPoint x="440" y="400" as="targetPoint" />
          </mxGeometry>
        </mxCell>
        <mxCell id="qaxs40s3yd5O6dKmV1-N-84" style="edgeStyle=orthogonalEdgeStyle;rounded=0;orthogonalLoop=1;jettySize=auto;html=1;endArrow=none;endFill=0;dashed=1;" edge="1" parent="1" source="qaxs40s3yd5O6dKmV1-N-77">
          <mxGeometry relative="1" as="geometry">
            <mxPoint x="540" y="520.0000000000001" as="targetPoint" />
          </mxGeometry>
        </mxCell>
        <mxCell id="qaxs40s3yd5O6dKmV1-N-77" value="" style="rounded=0;whiteSpace=wrap;html=1;strokeColor=#FF3399;labelBackgroundColor=default;" vertex="1" parent="1">
          <mxGeometry x="535" y="400" width="10" height="40" as="geometry" />
        </mxCell>
        <mxCell id="qaxs40s3yd5O6dKmV1-N-82" style="edgeStyle=orthogonalEdgeStyle;rounded=0;orthogonalLoop=1;jettySize=auto;html=1;endArrow=none;endFill=0;dashed=1;" edge="1" parent="1" source="qaxs40s3yd5O6dKmV1-N-80">
          <mxGeometry relative="1" as="geometry">
            <mxPoint x="665" y="520.0000000000001" as="targetPoint" />
          </mxGeometry>
        </mxCell>
        <mxCell id="qaxs40s3yd5O6dKmV1-N-80" value="" style="rounded=0;whiteSpace=wrap;html=1;strokeColor=#FF3399;labelBackgroundColor=default;" vertex="1" parent="1">
          <mxGeometry x="660" y="420" width="10" height="20" as="geometry" />
        </mxCell>
        <mxCell id="qaxs40s3yd5O6dKmV1-N-83" value="" style="endArrow=none;endFill=0;endSize=7;html=1;rounded=0;strokeColor=#f94848;exitX=1;exitY=0;exitDx=0;exitDy=0;entryX=0;entryY=1;entryDx=0;entryDy=0;startArrow=openThin;startFill=0;dashed=1;" edge="1" parent="1" source="qaxs40s3yd5O6dKmV1-N-26" target="qaxs40s3yd5O6dKmV1-N-80">
          <mxGeometry width="160" relative="1" as="geometry">
            <mxPoint x="330" y="480" as="sourcePoint" />
            <mxPoint x="560" y="480" as="targetPoint" />
          </mxGeometry>
        </mxCell>
        <mxCell id="qaxs40s3yd5O6dKmV1-N-88" style="edgeStyle=orthogonalEdgeStyle;rounded=0;orthogonalLoop=1;jettySize=auto;html=1;endArrow=none;endFill=0;dashed=1;" edge="1" parent="1" source="qaxs40s3yd5O6dKmV1-N-85">
          <mxGeometry relative="1" as="geometry">
            <mxPoint x="780" y="520" as="targetPoint" />
            <Array as="points">
              <mxPoint x="780" y="520" />
            </Array>
          </mxGeometry>
        </mxCell>
        <mxCell id="qaxs40s3yd5O6dKmV1-N-89" style="edgeStyle=orthogonalEdgeStyle;rounded=0;orthogonalLoop=1;jettySize=auto;html=1;entryX=0.5;entryY=1;entryDx=0;entryDy=0;dashed=1;strokeColor=#000000;endArrow=none;endFill=0;" edge="1" parent="1" source="qaxs40s3yd5O6dKmV1-N-85" target="qaxs40s3yd5O6dKmV1-N-22">
          <mxGeometry relative="1" as="geometry" />
        </mxCell>
        <mxCell id="qaxs40s3yd5O6dKmV1-N-85" value="" style="rounded=0;whiteSpace=wrap;html=1;strokeColor=#FF3399;" vertex="1" parent="1">
          <mxGeometry x="775" y="480" width="10" height="30" as="geometry" />
        </mxCell>
        <mxCell id="qaxs40s3yd5O6dKmV1-N-87" value="" style="endArrow=openThin;endFill=0;endSize=7;html=1;rounded=0;strokeColor=#f94848;exitX=1;exitY=0;exitDx=0;exitDy=0;startArrow=none;startFill=0;entryX=0;entryY=0;entryDx=0;entryDy=0;" edge="1" parent="1" target="qaxs40s3yd5O6dKmV1-N-85">
          <mxGeometry width="160" relative="1" as="geometry">
            <mxPoint x="60" y="480" as="sourcePoint" />
            <mxPoint x="770" y="480" as="targetPoint" />
          </mxGeometry>
        </mxCell>
        <mxCell id="qaxs40s3yd5O6dKmV1-N-90" value="" style="endArrow=openThin;endFill=0;endSize=7;html=1;rounded=0;strokeColor=#f94848;exitX=1;exitY=0.5;exitDx=0;exitDy=0;entryX=0;entryY=0;entryDx=0;entryDy=0;" edge="1" parent="1" source="qaxs40s3yd5O6dKmV1-N-77" target="qaxs40s3yd5O6dKmV1-N-80">
          <mxGeometry width="160" relative="1" as="geometry">
            <mxPoint x="550" y="399.99999999999994" as="sourcePoint" />
            <mxPoint x="660" y="399.99999999999994" as="targetPoint" />
          </mxGeometry>
        </mxCell>
        <mxCell id="qaxs40s3yd5O6dKmV1-N-91" value="9:更新數據" style="text;html=1;align=center;verticalAlign=middle;resizable=0;points=[];autosize=1;strokeColor=none;fillColor=none;" vertex="1" parent="1">
          <mxGeometry x="560" y="400" width="80" height="30" as="geometry" />
        </mxCell>
        <mxCell id="qaxs40s3yd5O6dKmV1-N-92" value="4:展示店鋪信息" style="text;html=1;align=center;verticalAlign=middle;resizable=0;points=[];autosize=1;strokeColor=none;fillColor=none;" vertex="1" parent="1">
          <mxGeometry x="375" y="188" width="110" height="30" as="geometry" />
        </mxCell>
        <mxCell id="qaxs40s3yd5O6dKmV1-N-93" value="6:展示餐飲信息" style="text;html=1;align=center;verticalAlign=middle;resizable=0;points=[];autosize=1;strokeColor=none;fillColor=none;" vertex="1" parent="1">
          <mxGeometry x="375" y="288" width="110" height="30" as="geometry" />
        </mxCell>
        <mxCell id="qaxs40s3yd5O6dKmV1-N-94" value="5:選擇店鋪" style="text;html=1;align=center;verticalAlign=middle;resizable=0;points=[];autosize=1;strokeColor=none;fillColor=none;" vertex="1" parent="1">
          <mxGeometry x="305" y="238" width="80" height="30" as="geometry" />
        </mxCell>
        <mxCell id="qaxs40s3yd5O6dKmV1-N-96" value="1:註冊" style="text;html=1;align=center;verticalAlign=middle;resizable=0;points=[];autosize=1;strokeColor=none;fillColor=none;" vertex="1" parent="1">
          <mxGeometry x="80" y="118" width="60" height="30" as="geometry" />
        </mxCell>
        <mxCell id="qaxs40s3yd5O6dKmV1-N-97" value="2:身分驗證" style="text;html=1;align=center;verticalAlign=middle;resizable=0;points=[];autosize=1;strokeColor=none;fillColor=none;" vertex="1" parent="1">
          <mxGeometry x="190" y="148" width="80" height="30" as="geometry" />
        </mxCell>
        <mxCell id="qaxs40s3yd5O6dKmV1-N-98" value="3:驗證結果" style="text;html=1;align=center;verticalAlign=middle;resizable=0;points=[];autosize=1;strokeColor=none;fillColor=none;" vertex="1" parent="1">
          <mxGeometry x="180" y="198" width="80" height="30" as="geometry" />
        </mxCell>
        <mxCell id="qaxs40s3yd5O6dKmV1-N-99" value="7:選擇餐飲" style="text;html=1;align=center;verticalAlign=middle;resizable=0;points=[];autosize=1;strokeColor=none;fillColor=none;" vertex="1" parent="1">
          <mxGeometry x="320" y="340" width="80" height="30" as="geometry" />
        </mxCell>
        <mxCell id="qaxs40s3yd5O6dKmV1-N-100" value="8:下訂單" style="text;html=1;align=center;verticalAlign=middle;resizable=0;points=[];autosize=1;strokeColor=none;fillColor=none;" vertex="1" parent="1">
          <mxGeometry x="365" y="378" width="70" height="30" as="geometry" />
        </mxCell>
        <mxCell id="qaxs40s3yd5O6dKmV1-N-101" value="10:退出系統" style="text;html=1;align=center;verticalAlign=middle;resizable=0;points=[];autosize=1;strokeColor=none;fillColor=none;" vertex="1" parent="1">
          <mxGeometry x="335" y="415" width="90" height="30" as="geometry" />
        </mxCell>
        <mxCell id="qaxs40s3yd5O6dKmV1-N-102" value="11:餐飲評價" style="text;html=1;align=center;verticalAlign=middle;resizable=0;points=[];autosize=1;strokeColor=none;fillColor=none;" vertex="1" parent="1">
          <mxGeometry x="365" y="460" width="90" height="30" as="geometry" />
        </mxCell>
        <mxCell id="qaxs40s3yd5O6dKmV1-N-104" style="edgeStyle=orthogonalEdgeStyle;rounded=0;orthogonalLoop=1;jettySize=auto;html=1;endArrow=none;endFill=0;dashed=1;" edge="1" parent="1" source="qaxs40s3yd5O6dKmV1-N-62">
          <mxGeometry relative="1" as="geometry">
            <mxPoint x="420" y="520" as="targetPoint" />
          </mxGeometry>
        </mxCell>
      </root>
    </mxGraphModel>
  </diagram>
</mxfile>
